# xmcd CD database file
#
# Track frame offsets:
#	150
#	10080
#	22062
#	36853
#	50001
#	64601
#	78075
#	90191
#	101897
#	121491
#	133856
#	150621
#	167150
#	181728
#	194978
#
# Disc length: 2851 seconds
#
# Revision: 0
# Processed by: cddbd v1.5.1PL2 Copyright (c) Steve Scherf et al.
# Submitted via: CDex 1.51
#
DISCID=c50b210f
DTITLE=Superstars of Country - Southern Nights [CDOne)
DYEAR=1900
DGENRE=Country
TTITLE0=Linda Ronstadt - When Will I Be Loved
TTITLE1=Shelly West - Jose Cuervo
TTITLE2=Highway 101 - Somewhere Tonight
TTITLE3=Conway Twitty - Slow Hand
TTITLE4=The Forester Sisters - I Fell in Love Again Last Night
TTITLE5=Randy Travis - Diggin' Up Bones
TTITLE6=John Anderson - Wild and Blue
TTITLE7=Conway Twitty - Don't Call Him a Cowboy
TTITLE8=Eddie Rabbit - Suspicions
TTITLE9=Johnny Lee - One in a Million
TTITLE10=T.G. Sheppard - Last Cheater's Waltz
TTITLE11=Gary Morris - I'll Never Stop Loving You
TTITLE12=Melba Montgomery - No Charge
TTITLE13=Margo Smith - Don't Break the Heart That Loves You
TTITLE14=Emmylou Harris - Sweet Dreams
EXTD=
EXTT0=
EXTT1=
EXTT2=
EXTT3=
EXTT4=
EXTT5=
EXTT6=
EXTT7=
EXTT8=
EXTT9=
EXTT10=
EXTT11=
EXTT12=
EXTT13=
EXTT14=
PLAYORDER=
